<?xml version="1.0" standalone="no"?>
<!DOCTYPE svg PUBLIC "-//W3C//DTD SVG 20010904//EN"
 "http://www.w3.org/TR/2001/REC-SVG-20010904/DTD/svg10.dtd">
<svg version="1.0" xmlns="http://www.w3.org/2000/svg"
 width="1064.000000pt" height="104.000000pt" viewBox="0 0 1064.000000 104.000000"
 preserveAspectRatio="xMidYMid meet">

<g transform="translate(0.000000,104.000000) scale(0.100000,-0.100000)"
fill="#000000" stroke="none">
<path d="M10095 1009 c-137 -44 -207 -136 -207 -272 0 -80 14 -125 57 -175 39
-46 92 -75 229 -121 171 -59 206 -84 206 -148 0 -41 -25 -71 -69 -84 -76 -23
-151 15 -166 82 l-7 29 -130 0 -130 0 7 -42 c22 -133 116 -225 266 -258 82
-18 232 -9 292 18 77 34 123 77 156 144 26 50 31 73 31 130 0 150 -60 212
-287 294 -164 59 -203 87 -203 146 0 102 167 117 208 18 l17 -40 128 0 c144 0
139 -4 112 86 -41 138 -169 215 -359 213 -62 0 -110 -6 -151 -20z"/>
<path d="M626 1010 c-27 -5 -52 -12 -57 -17 -9 -10 -559 -962 -559 -969 0 -2
64 -3 142 -2 l143 3 205 357 c113 196 208 357 213 358 4 0 12 -11 19 -25 6
-13 14 -22 18 -20 9 6 160 268 160 277 0 13 -97 37 -167 42 -37 2 -90 1 -117
-4z"/>
<path d="M1470 515 l0 -505 120 0 120 0 0 190 0 190 29 0 c28 0 35 -10 132
-190 l102 -190 134 0 c73 0 133 2 133 4 0 2 -49 90 -110 196 -60 106 -110 195
-110 199 0 4 17 13 37 20 58 21 129 95 153 157 57 153 -2 320 -138 388 -77 38
-139 46 -377 46 l-225 0 0 -505z m431 295 c48 -13 79 -50 86 -99 7 -49 -10
-94 -45 -121 -21 -17 -40 -20 -128 -20 l-104 0 0 125 0 125 78 0 c42 0 93 -5
113 -10z"/>
<path d="M2382 518 l3 -503 118 -3 117 -3 0 191 0 190 33 0 c31 0 34 -4 133
-188 l101 -187 132 -3 c83 -2 131 1 131 7 0 6 -49 96 -110 201 l-109 190 54
25 c105 50 160 142 160 270 -1 140 -66 236 -194 287 -52 20 -76 22 -314 26
l-257 4 2 -504z m447 289 c49 -17 73 -55 73 -115 0 -55 -19 -93 -58 -110 -14
-7 -70 -12 -124 -12 l-100 0 0 118 c0 65 3 122 7 125 11 12 166 7 202 -6z"/>
<path d="M3416 523 c-97 -274 -176 -502 -176 -506 0 -4 55 -6 123 -5 l122 3
30 87 30 88 185 0 185 0 30 -87 30 -88 123 -3 c86 -2 122 1 122 9 0 8 -314
900 -345 982 -6 15 -23 17 -145 17 l-137 0 -177 -497z m373 49 c30 -92 56
-173 58 -179 4 -10 -24 -13 -117 -13 -109 0 -121 2 -116 16 4 9 30 90 58 180
29 90 55 164 58 164 3 0 29 -76 59 -168z"/>
<path d="M4340 515 l0 -506 118 3 117 3 5 302 5 302 196 -302 196 -302 119 0
119 0 3 503 2 502 -120 0 -120 0 0 -306 c0 -179 -4 -303 -9 -300 -5 3 -96 141
-203 306 l-193 300 -117 0 -118 0 0 -505z"/>
<path d="M5340 1008 c0 -7 55 -231 123 -498 l123 -485 146 -3 147 -3 10 38 c6
21 37 148 71 283 85 340 81 326 89 310 5 -8 41 -153 81 -323 l74 -307 148 0
147 0 10 38 c5 20 53 206 106 412 53 206 107 415 120 463 l24 88 -132 -3 -131
-3 -71 -360 c-67 -339 -72 -358 -83 -320 -6 22 -41 168 -77 325 -36 157 -71
302 -76 323 l-10 37 -132 0 -132 0 -79 -328 c-43 -180 -84 -343 -89 -362 -9
-31 -18 3 -81 325 l-71 360 -128 3 c-98 2 -127 0 -127 -10z"/>
<path d="M7270 1013 c-18 -4 -82 -72 -225 -242 -110 -130 -200 -244 -200 -253
0 -14 345 -432 350 -426 2 2 25 30 53 62 l50 60 -20 25 -20 26 45 3 c39 3 49
9 91 57 25 29 46 56 46 59 0 3 -65 6 -144 6 l-143 0 -52 60 c-29 33 -51 66
-48 73 3 7 71 90 152 185 126 148 149 171 162 160 13 -11 22 -6 55 32 21 25
48 57 59 72 l19 26 -50 11 c-50 11 -131 12 -180 4z"/>
<path d="M8000 521 l0 -501 120 0 120 0 0 185 0 185 29 0 c28 0 35 -10 131
-185 l102 -185 134 0 c74 0 134 2 134 5 0 3 -50 91 -111 196 -61 105 -109 191
-107 192 138 70 176 107 204 204 45 156 -33 315 -185 375 -52 20 -77 22 -313
26 l-258 4 0 -501z m471 276 c34 -23 49 -57 49 -113 0 -39 -5 -51 -34 -80
l-34 -34 -106 0 -106 0 0 126 0 127 103 -5 c73 -3 110 -9 128 -21z"/>
<path d="M8920 520 l0 -500 120 0 120 0 0 216 c0 122 4 213 9 210 5 -3 80
-100 167 -216 l159 -210 148 0 149 0 -30 38 c-16 20 -104 133 -197 251 -146
187 -166 217 -156 233 6 10 80 105 163 211 83 106 164 209 180 230 l30 37
-144 0 -143 0 -160 -215 c-88 -118 -163 -214 -167 -214 -5 -1 -8 96 -8 214 l0
215 -120 0 -120 0 0 -500z"/>
<path d="M7495 926 c-6 -8 -27 -35 -49 -60 -36 -43 -38 -48 -22 -64 24 -27 20
-32 -23 -32 -35 0 -43 -5 -90 -62 l-51 -63 149 -3 148 -3 53 -60 c47 -54 51
-62 38 -77 -224 -265 -291 -342 -297 -342 -4 0 -12 5 -18 11 -7 7 -27 -9 -67
-57 -38 -47 -53 -71 -46 -78 13 -13 220 -20 236 -9 23 17 407 477 408 488 1
13 -342 425 -353 425 -3 0 -11 -6 -16 -14z"/>
<path d="M856 744 c-36 -64 -66 -122 -66 -128 0 -6 12 -29 25 -51 14 -22 25
-43 25 -47 0 -5 -27 -8 -59 -8 l-60 0 -70 -122 -71 -123 207 -3 208 -3 45 -81
c25 -45 57 -101 72 -125 l28 -43 140 0 c77 0 140 2 140 5 0 5 -171 304 -390
683 -52 89 -97 162 -101 162 -4 0 -36 -52 -73 -116z"/>
</g>
</svg>
